<svg width="18" height="18" viewBox="0 0 18 18" fill="none" xmlns="http://www.w3.org/2000/svg">
<path d="M13.5898 8.17969L7.82031 2.41016C7.57422 2.16406 7.24609 2 6.89062 2H1.3125C0.574219 2 0 2.60156 0 3.3125V8.91797C0 9.27344 0.136719 9.60156 0.382812 9.84766L6.15234 15.6172C6.67188 16.1367 7.51953 16.1367 8.01172 15.6172L13.5898 10.0391C14.1094 9.54688 14.1094 8.69922 13.5898 8.17969ZM3.0625 6.375C2.32422 6.375 1.75 5.80078 1.75 5.0625C1.75 4.35156 2.32422 3.75 3.0625 3.75C3.77344 3.75 4.375 4.35156 4.375 5.0625C4.375 5.80078 3.77344 6.375 3.0625 6.375ZM17.0898 10.0391C17.6094 9.54688 17.6094 8.69922 17.0898 8.17969L11.3203 2.41016C11.0742 2.16406 10.7461 2 10.3906 2H9.05078L14.4102 7.38672C14.875 7.85156 15.1484 8.45312 15.1484 9.10938C15.1484 9.76562 14.875 10.3945 14.4102 10.8594L9.65234 15.6172C10.1719 16.1367 11.0195 16.1367 11.5117 15.6172L17.0898 10.0391Z" fill="#7A7D81"/>
</svg>
